<?xml version="1.0" encoding="UTF-8" standalone="no"?>
<svg
   viewBox="0 0 20 20"
   version="1.1"
   id="svg4"
   sodipodi:docname="betomat-words-icon.svg"
   inkscape:version="1.2 (dc2aedaf03, 2022-05-15)"
   xmlns:inkscape="http://www.inkscape.org/namespaces/inkscape"
   xmlns:sodipodi="http://sodipodi.sourceforge.net/DTD/sodipodi-0.dtd"
   xmlns="http://www.w3.org/2000/svg"
   xmlns:svg="http://www.w3.org/2000/svg">
  <defs
     id="defs8" />
  <sodipodi:namedview
     id="namedview6"
     pagecolor="#ffffff"
     bordercolor="#666666"
     borderopacity="1.0"
     inkscape:showpageshadow="2"
     inkscape:pageopacity="0.0"
     inkscape:pagecheckerboard="0"
     inkscape:deskcolor="#d1d1d1"
     showgrid="false"
     inkscape:zoom="33.37544"
     inkscape:cx="7.1609543"
     inkscape:cy="3.8051933"
     inkscape:window-width="2560"
     inkscape:window-height="1538"
     inkscape:window-x="0"
     inkscape:window-y="0"
     inkscape:window-maximized="1"
     inkscape:current-layer="svg4" />
  <path
     id="circle900"
     style="fill:#ffb402;fill-opacity:1;stroke-width:5.01613;stroke-linejoin:round;stop-color:#000000"
     d="M 2.75 15 A 0.75 0.75 0 0 0 2 15.75 C 2 16.164 2.3360004 16.5 2.75 16.5 L 12.679688 16.5 A 0.75 0.75 0 0 0 12.679688 15 L 2.75 15 z " />
  <path
     id="circle904"
     style="fill:#51a5ff;fill-opacity:1;stroke-width:6.43552;stroke-linejoin:round;stop-color:#000000"
     d="M 2.75 11 A 0.75 0.75 0 0 0 2 11.75 C 2 12.164 2.3360004 12.5 2.75 12.5 L 17.25 12.5 A 0.75 0.75 0 0 0 17.25 11 L 2.75 11 z " />
  <path
     id="circle906"
     style="fill:#cf0000;fill-opacity:1;stroke-width:5.50317;stroke-linejoin:round;stop-color:#000000"
     d="M 2.75 7 A 0.75 0.75 0 0 0 2 7.75 C 2 8.1639996 2.3360004 8.5 2.75 8.5 L 17.25 8.5 A 0.75 0.75 0 0 0 17.25 7 L 2.75 7 z " />
  <path
     id="rect439"
     style="fill:#00a10d;stroke-width:2.5174;stroke-linejoin:round;stop-color:#000000;fill-opacity:1"
     d="M 2.75 3 A 0.75 0.75 0 0 0 2 3.75 C 2 4.1639996 2.3360004 4.5 2.75 4.5 L 17.25 4.5 A 0.75 0.75 0 0 0 17.25 3 L 2.75 3 z " />
</svg>
